<svg xmlns="http://www.w3.org/2000/svg" viewBox="0 7 127.05000305175781 36" data-asc="0.86" width="127.05000305175781" height="36"><defs/><g fill="#ffffff"><g transform="translate(0, 0)"><path d="M25.00 43L1.80 43Q0.85 43 0.42 42.58Q0 42.15 0 41.20L0 8.80Q0 7.85 0.42 7.42Q0.85 7 1.80 7L25.00 7Q25.95 7 26.38 7.42Q26.80 7.85 26.80 8.80L26.80 14.65Q26.80 15.60 26.38 16.02Q25.95 16.45 25.00 16.45L11.20 16.45L11.20 20.30L20.95 20.30Q21.90 20.30 22.33 20.72Q22.75 21.15 22.75 22.10L22.75 27.45Q22.75 28.40 22.33 28.82Q21.90 29.25 20.95 29.25L11.20 29.25L11.20 33.55L25.00 33.55Q25.95 33.55 26.38 33.98Q26.80 34.40 26.80 35.35L26.80 41.20Q26.80 42.15 26.38 42.58Q25.95 43 25.00 43ZM45.75 17.50L43.40 25.10L51.25 25.10L48.90 17.50Q48.70 17.05 48.48 16.85Q48.25 16.65 47.95 16.65L46.70 16.65Q46.40 16.65 46.18 16.85Q45.95 17.05 45.75 17.50M42.90 41.20Q42.90 42.15 42.48 42.58Q42.05 43 41.10 43L33.75 43Q32.80 43 32.38 42.58Q31.95 42.15 31.95 41.20L31.95 28Q31.95 26.50 32.43 24.55Q32.90 22.60 33.90 20L38.25 8.65Q38.55 7.80 39.18 7.40Q39.80 7 40.80 7L54.25 7Q55.20 7 55.83 7.40Q56.45 7.80 56.75 8.65L61.10 20Q62.10 22.60 62.58 24.55Q63.05 26.50 63.05 28L63.05 41.20Q63.05 42.15 62.63 42.58Q62.20 43 61.25 43L53.70 43Q52.70 43 52.23 42.58Q51.75 42.15 51.75 41.20L51.75 34.20L42.90 34.20L42.90 41.20ZM84.20 43L76.10 43Q75.15 43 74.72 42.58Q74.30 42.15 74.30 41.20L74.30 16.65L66.95 16.65Q66 16.65 65.58 16.22Q65.15 15.80 65.15 14.85L65.15 8.80Q65.15 7.85 65.58 7.42Q66 7 66.95 7L93.35 7Q94.30 7 94.72 7.42Q95.15 7.85 95.15 8.80L95.15 14.85Q95.15 15.80 94.72 16.22Q94.30 16.65 93.35 16.65L86 16.65L86 41.20Q86 42.15 85.58 42.58Q85.15 43 84.20 43ZM116.70 43L100.90 43Q99.95 43 99.53 42.58Q99.10 42.15 99.10 41.20L99.10 35.35Q99.10 34.40 99.53 33.98Q99.95 33.55 100.90 33.55L114.35 33.55Q115.00 33.55 115.33 33.13Q115.65 32.70 115.65 32.10Q115.65 31.25 115.33 30.85Q115.00 30.45 114.35 30.40L106.85 29.35Q103.35 28.85 101.23 27.05Q99.10 25.25 99.10 21.05L99.10 15.80Q99.10 11.55 101.85 9.27Q104.60 7 109.45 7L123.45 7Q124.40 7 124.83 7.42Q125.25 7.85 125.25 8.80L125.25 14.75Q125.25 15.70 124.83 16.13Q124.40 16.55 123.45 16.55L111.80 16.55Q111.15 16.55 110.80 16.97Q110.45 17.40 110.45 18.05Q110.45 18.70 110.80 19.15Q111.15 19.60 111.80 19.65L119.25 20.65Q122.75 21.15 124.90 22.95Q127.05 24.75 127.05 28.95L127.05 34.20Q127.05 38.45 124.28 40.73Q121.50 43 116.70 43Z"/></g></g></svg>