<svg xmlns="http://www.w3.org/2000/svg" viewBox="0 7 125.5999984741211 36" data-asc="0.86" width="125.5999984741211" height="36"><defs/><g fill="#ffffff"><g transform="translate(0, 0)"><path d="M9.55 43L1.80 43Q0.85 43 0.42 42.58Q0 42.15 0 41.20L0 8.80Q0 7.85 0.42 7.42Q0.85 7 1.80 7L24.10 7Q25.05 7 25.48 7.42Q25.90 7.85 25.90 8.80L25.90 14.75Q25.90 15.70 25.48 16.13Q25.05 16.55 24.10 16.55L11.35 16.55L11.35 21.75L20.05 21.75Q21.00 21.75 21.43 22.17Q21.85 22.60 21.85 23.55L21.85 29.55Q21.85 30.50 21.43 30.92Q21.00 31.35 20.05 31.35L11.35 31.35L11.35 41.20Q11.35 42.15 10.93 42.58Q10.50 43 9.55 43ZM42.20 17.50L39.85 25.10L47.70 25.10L45.35 17.50Q45.15 17.05 44.93 16.85Q44.70 16.65 44.40 16.65L43.15 16.65Q42.85 16.65 42.63 16.85Q42.40 17.05 42.20 17.50M39.35 41.20Q39.35 42.15 38.93 42.58Q38.50 43 37.55 43L30.20 43Q29.25 43 28.83 42.58Q28.40 42.15 28.40 41.20L28.40 28Q28.40 26.50 28.88 24.55Q29.35 22.60 30.35 20L34.70 8.65Q35 7.80 35.63 7.40Q36.25 7 37.25 7L50.70 7Q51.65 7 52.28 7.40Q52.90 7.80 53.20 8.65L57.55 20Q58.55 22.60 59.03 24.55Q59.50 26.50 59.50 28L59.50 41.20Q59.50 42.15 59.08 42.58Q58.65 43 57.70 43L50.15 43Q49.15 43 48.68 42.58Q48.20 42.15 48.20 41.20L48.20 34.20L39.35 34.20L39.35 41.20ZM82.35 43L66.55 43Q65.60 43 65.17 42.58Q64.75 42.15 64.75 41.20L64.75 35.35Q64.75 34.40 65.17 33.98Q65.60 33.55 66.55 33.55L80 33.55Q80.65 33.55 80.98 33.13Q81.30 32.70 81.30 32.10Q81.30 31.25 80.98 30.85Q80.65 30.45 80 30.40L72.50 29.35Q69 28.85 66.88 27.05Q64.75 25.25 64.75 21.05L64.75 15.80Q64.75 11.55 67.50 9.27Q70.25 7 75.10 7L89.10 7Q90.05 7 90.48 7.42Q90.90 7.85 90.90 8.80L90.90 14.75Q90.90 15.70 90.48 16.13Q90.05 16.55 89.10 16.55L77.45 16.55Q76.80 16.55 76.45 16.97Q76.10 17.40 76.10 18.05Q76.10 18.70 76.45 19.15Q76.80 19.60 77.45 19.65L84.90 20.65Q88.40 21.15 90.55 22.95Q92.70 24.75 92.70 28.95L92.70 34.20Q92.70 38.45 89.93 40.73Q87.15 43 82.35 43ZM114.65 43L106.55 43Q105.60 43 105.18 42.58Q104.75 42.15 104.75 41.20L104.75 16.65L97.40 16.65Q96.45 16.65 96.03 16.22Q95.60 15.80 95.60 14.85L95.60 8.80Q95.60 7.85 96.03 7.42Q96.45 7 97.40 7L123.80 7Q124.75 7 125.18 7.42Q125.60 7.85 125.60 8.80L125.60 14.85Q125.60 15.80 125.18 16.22Q124.75 16.65 123.80 16.65L116.45 16.65L116.45 41.20Q116.45 42.15 116.03 42.58Q115.60 43 114.65 43Z"/></g></g></svg>